# xmcd CD database file
#
# Track frame offsets:
#	150
#	15007
#	31765
#	46825
#	67290
#	83910
#	99955
#	111997
#	127212
#	135580
#	154457
#	175935
#	194570
#	212495
#	218955
#	223620
#	227147
#	230077
#	232850
#	237010
#	238525
#	240127
#	242132
#	246807
#	252510
#	255090
#	256652
#	259020
#	262107
#	268520
#	273417
#	279170
#	281907
#	287605
#	290180
#	292400
#
# Disc length: 4048 seconds
#
# Revision: 5
# Processed by: cddbd v1.5.2PL0 Copyright (c) Steve Scherf et al.
# Submitted via: CDex 1.51
#
DISCID=1e0fce24
DTITLE=Rachmaninoff - Preludes, Corelli Variations, etc (Santiago Rodriguez, piano)
DYEAR=2008
DGENRE=Classique
TTITLE0=Prelude Op.23  N°01 in F sharp minor - Largo
TTITLE1=Prelude Op.23  N°02 in B flat major - Maestoso
TTITLE2=Prelude Op.23  N°03 in D minor - Tempo di minuetto
TTITLE3=Prelude Op.23  N°04 in D major - Andante cantabile
TTITLE4=Prelude Op.23  N°05 in G minor - Alla marcia
TTITLE5=Prelude Op.23  N°06 in E flat major - Andante
TTITLE6=Prelude Op.23  N°07 in C minor - Allegro
TTITLE7=Prelude Op.23  N°08 in A flat major - Allegro vivace
TTITLE8=Prelude Op.23  N°09 in E flat minor - Presto
TTITLE9=Prelude Op.23  N°10 in G flat major - Largo
TTITLE10=Nocturne N°1 in F sharp minor
TTITLE11=Nocturne N°2 in F major
TTITLE12=Nocturne N°3 in C minor
TTITLE13=Song without Words
TTITLE14=Corelli Variations Op.42 - Theme - Andante
TTITLE15=Corelli Variations op.42 - Variation 01 - Poco più mosso
TTITLE16=Corelli Variations op.42 - Variation 02 - L'istesso tempo
TTITLE17=Corelli Variations op.42 - Variation 03 - Tempo di menuetto
TTITLE18=Corelli Variations op.42 - Variation 04 - Andante
TTITLE19=Corelli Variations op.42 - Variation 05 - Allegro (ma non tanto)
TTITLE20=Corelli Variations op.42 - Variation 06 - L'istesso tempo
TTITLE21=Corelli Variations op.42 - Variation 07 - Vivace
TTITLE22=Corelli Variations op.42 - Variation 08 - Adagio misterioso
TTITLE23=Corelli Variations op.42 - Variation 09 - Un poco più mosso
TTITLE24=Corelli Variations op.42 - Variation 10 - Allegro scherzando
TTITLE25=Corelli Variations op.42 - Variation 11 - Allegro vivace
TTITLE26=Corelli Variations op.42 - Variation 12 - L'istesso Tempo
TTITLE27=Corelli Variations op.42 - Variation 13 - Agitato
TTITLE28=Corelli Variations op.42 - Intermezzo - A tempo rubato
TTITLE29=Corelli Variations op.42 - Variation 14 - Andante (come prima)
TTITLE30=Corelli Variations op.42 - Variation 15 - L'istesso tempo
TTITLE31=Corelli Variations op.42 - Variation 16 - Allegro vivace
TTITLE32=Corelli Variations op.42 - Variation 17 - Meno mosso
TTITLE33=Corelli Variations op.42 - Variation 18 - Allegro con brio
TTITLE34=Corelli Variations op.42 - Variation 19 - Più mosso - Agitato
TTITLE35=Corelli Variations op.42 - Variation 20 - Più mosso - Coda
EXTD=YEAR: 2008
EXTT0=
EXTT1=
EXTT2=
EXTT3=
EXTT4=
EXTT5=
EXTT6=
EXTT7=
EXTT8=
EXTT9=
EXTT10=
EXTT11=
EXTT12=
EXTT13=
EXTT14=
EXTT15=
EXTT16=
EXTT17=
EXTT18=
EXTT19=
EXTT20=
EXTT21=
EXTT22=
EXTT23=
EXTT24=
EXTT25=
EXTT26=
EXTT27=
EXTT28=
EXTT29=
EXTT30=
EXTT31=
EXTT32=
EXTT33=
EXTT34=
EXTT35=
PLAYORDER=
